<?xml version="1.0" encoding="UTF-8"?>
<svg width="92px" height="12px" viewBox="0 0 92 12" version="1.1" xmlns="http://www.w3.org/2000/svg" xmlns:xlink="http://www.w3.org/1999/xlink">
    <!-- Generator: Sketch 43 (38999) - http://www.bohemiancoding.com/sketch -->
    <title>Plansys Logo</title>
    <desc>Created with Sketch.</desc>
    <defs></defs>
    <g id="IDE" stroke="none" stroke-width="1" fill="none" fill-rule="evenodd" opacity="0.8">
        <g transform="translate(-23.000000, -19.000000)" id="Plansys-Logo" fill="#FFFFFF">
            <g transform="translate(23.000000, 19.000000)">
                <path d="M5.75381538,6.00475385 L1.94012308,6.0006 L1.94012308,2.23629231 L4.99458462,2.23629231 C5.5872,2.23629231 6.10181538,2.2626 6.52550769,2.31521538 C6.91689231,2.36367692 7.23858462,2.45783077 7.48227692,2.59490769 C7.69827692,2.71536923 7.85335385,2.88244615 7.95673846,3.10444615 C8.06981538,3.34721538 8.12704615,3.68598462 8.12704615,4.11106154 C8.12704615,4.47429231 8.08181538,4.77244615 7.99273846,4.99629231 C7.90689231,5.21229231 7.79381538,5.38721538 7.65581538,5.51506154 C7.51366154,5.64752308 7.35350769,5.74352308 7.16566154,5.8086 C6.95473846,5.88198462 6.72996923,5.93367692 6.49596923,5.96229231 C6.25135385,5.99183077 6.00489231,6.00383077 5.75381538,6.00475385 M9.50104615,2.60552308 C9.33304615,2.14536923 9.06581538,1.75583077 8.70581538,1.4466 C8.35550769,1.1466 7.90458462,0.917215385 7.36689231,0.764907692 C6.84996923,0.6186 6.22366154,0.544292308 5.50550769,0.544292308 L0.345507692,0.544292308 L0.345507692,11.6447538 L1.94012308,11.6447538 L1.94012308,7.69306154 L5.50550769,7.69306154 C6.22227692,7.69306154 6.84812308,7.61875385 7.36689231,7.47290769 C7.90735385,7.31921538 8.3592,7.08613846 8.70858462,6.77921538 C9.06766154,6.46629231 9.33443077,6.07490769 9.50104615,5.6166 C9.66027692,5.17767692 9.74150769,4.67136923 9.74150769,4.11106154 C9.74150769,3.55167692 9.66027692,3.04536923 9.50104615,2.60552308" id="Fill-14"></path>
                <polygon id="Fill-16" points="15.6056769 9.95238462 15.6056769 0.544384615 14.0106 0.544384615 14.0106 11.6448462 22.0515231 11.6448462 22.0515231 9.95238462"></polygon>
                <polygon id="Fill-18" points="49.4363538 0.544292308 49.4363538 8.9466 42.3475846 0.544292308 40.8849692 0.544292308 40.8849692 11.6447538 42.4795846 11.6447538 42.4795846 3.26829231 49.5683538 11.6447538 51.0180462 11.6447538 51.0180462 0.544292308"></polygon>
                <path d="M64.4201077,7.50387692 C64.2571846,7.19049231 64.0361077,6.90849231 63.7619538,6.66756923 C63.4998,6.4368 63.1896462,6.23187692 62.8407231,6.05972308 C62.5125692,5.89818462 62.1567231,5.74818462 61.7833385,5.6148 C61.4191846,5.48556923 61.0430308,5.36464615 60.6562615,5.25249231 C60.2773385,5.14310769 59.9108769,5.03464615 59.5550308,4.92849231 C59.2065692,4.82326154 58.8770308,4.71203077 58.5664154,4.59295385 C58.2705692,4.47895385 58.0125692,4.35341538 57.7998,4.21956923 C57.6068769,4.09818462 57.4545692,3.95972308 57.3465692,3.8088 C57.2579538,3.68556923 57.2150308,3.54203077 57.2150308,3.36941538 C57.2150308,3.14233846 57.2653385,2.95541538 57.3691846,2.79849231 C57.4794923,2.63003077 57.6410308,2.49156923 57.8625692,2.37526154 C58.1062615,2.24741538 58.4131846,2.15095385 58.7768769,2.08910769 C59.4710308,1.96864615 60.4725692,1.95018462 61.2036462,2.07064615 C61.5382615,2.12464615 61.8401077,2.19249231 62.1027231,2.27233846 C62.3584154,2.34941538 62.5905692,2.43849231 62.7918,2.5368 C63.0022615,2.64018462 63.1878,2.73849231 63.3498,2.82941538 L63.9368769,3.16310769 L63.9368769,1.08849231 L63.6530308,1.00264615 C63.3714923,0.917261538 63.0927231,0.836953846 62.8181077,0.760338462 C62.5379538,0.6828 62.2508769,0.614953846 61.9568769,0.556338462 C61.6619538,0.496338462 61.3564154,0.448338462 61.0374923,0.411876923 C60.4222615,0.343107692 59.7313385,0.337107692 59.0302615,0.411876923 C58.6938,0.448338462 58.3633385,0.509261538 58.0481077,0.590953846 C57.7231846,0.674953846 57.4153385,0.7908 57.1319538,0.933876923 C56.8356462,1.0848 56.5716462,1.27356923 56.3473385,1.49741538 C56.1161077,1.72772308 55.9324154,2.00510769 55.8004154,2.32218462 C55.6679538,2.6388 55.6010308,3.00156923 55.6010308,3.39987692 C55.6010308,3.81618462 55.6873385,4.19141538 55.8576462,4.51495385 C56.0210308,4.82603077 56.2434923,5.10156923 56.5185692,5.33418462 C56.7807231,5.55849231 57.0908769,5.75510769 57.4407231,5.91941538 C57.7730308,6.07495385 58.1261077,6.21664615 58.4930308,6.34033846 C58.8553385,6.46218462 59.2305692,6.57618462 59.6178,6.67956923 C59.9921077,6.78110769 60.3548769,6.88541538 60.7079538,6.99156923 C61.0522615,7.09587692 61.3804154,7.20803077 61.6891846,7.32849231 C61.9799538,7.44341538 62.2347231,7.57403077 62.4451846,7.71756923 C62.6385692,7.85049231 62.7918,8.00233846 62.9002615,8.16941538 C62.9953385,8.31710769 63.0419538,8.48741538 63.0419538,8.69141538 C63.0419538,8.95910769 62.9814923,9.17464615 62.8573385,9.34910769 C62.7253385,9.53741538 62.5301077,9.69433846 62.2804154,9.81618462 C62.0034923,9.95095385 61.6656462,10.0515692 61.2765692,10.1143385 C60.2985692,10.2758769 59.0339538,10.2435692 57.9811846,9.99941538 C57.3834923,9.86141538 56.8079538,9.60249231 56.2702615,9.22864615 L55.6527231,8.79987692 L55.6527231,10.9935692 L55.9065692,11.0937231 C56.4936462,11.3268 57.1153385,11.5114154 57.7513385,11.6438769 C58.3988769,11.7786462 59.1262615,11.8469538 59.9131846,11.8469538 C60.2588769,11.8469538 60.6096462,11.8294154 60.9673385,11.7966462 C61.3268769,11.7624923 61.6827231,11.7029538 62.0251846,11.6184923 C62.3731846,11.5321846 62.7050308,11.4135692 63.0124154,11.2658769 C63.3336462,11.1112615 63.6193385,10.9128 63.8611846,10.6755692 C64.1094923,10.4332615 64.3093385,10.1397231 64.4556462,9.80418462 C64.6010308,9.46633846 64.6753385,9.07172308 64.6753385,8.63187692 C64.6753385,8.21187692 64.5894923,7.83249231 64.4201077,7.50387692" id="Fill-20"></path>
                <polygon id="Fill-22" points="76.5977077 0.544292308 73.2243231 5.40106154 69.8394 0.544292308 67.9069385 0.544292308 72.4244769 7.01229231 72.4244769 11.6447538 74.0190923 11.6447538 74.0190923 7.01229231 78.5375538 0.544292308"></polygon>
                <path d="M91.2177692,7.50387692 C91.0548462,7.19049231 90.8337692,6.90849231 90.5596154,6.66756923 C90.2974615,6.4368 89.9873077,6.23187692 89.6383846,6.05972308 C89.3102308,5.89818462 88.9543846,5.74818462 88.5814615,5.6148 C88.2168462,5.48556923 87.8406923,5.36464615 87.4539231,5.25249231 C87.0754615,5.14310769 86.7085385,5.03464615 86.3526923,4.92849231 C86.0042308,4.82326154 85.6746923,4.71203077 85.3645385,4.59295385 C85.0682308,4.47895385 84.8102308,4.35341538 84.5974615,4.21956923 C84.405,4.09818462 84.2522308,3.95972308 84.1442308,3.8088 C84.0556154,3.68556923 84.0126923,3.54203077 84.0126923,3.36941538 C84.0126923,3.14233846 84.063,2.95541538 84.1668462,2.79849231 C84.2771538,2.63003077 84.4386923,2.49156923 84.6602308,2.37526154 C84.9039231,2.24741538 85.2113077,2.15095385 85.575,2.08910769 C86.2691538,1.96864615 87.2693077,1.95018462 88.0017692,2.07064615 C88.3359231,2.12464615 88.6377692,2.19249231 88.9003846,2.27233846 C89.1560769,2.34941538 89.3882308,2.43849231 89.5899231,2.5368 C89.8003846,2.64018462 89.9859231,2.73849231 90.1474615,2.82941538 L90.735,3.16310769 L90.735,1.08849231 L90.4506923,1.00264615 C90.1691538,0.917261538 89.8903846,0.836953846 89.6157692,0.760338462 C89.3356154,0.6828 89.0485385,0.614953846 88.7545385,0.556338462 C88.4596154,0.496338462 88.1540769,0.448338462 87.8351538,0.411876923 C87.2203846,0.343107692 86.5285385,0.337107692 85.8279231,0.411876923 C85.4914615,0.448338462 85.161,0.509261538 84.8457692,0.590953846 C84.5208462,0.674953846 84.213,0.7908 83.9296154,0.933876923 C83.6333077,1.0848 83.3693077,1.27356923 83.1454615,1.49741538 C82.9137692,1.72772308 82.7300769,2.00510769 82.5980769,2.32218462 C82.4656154,2.6388 82.3986923,3.00156923 82.3986923,3.39987692 C82.3986923,3.81618462 82.485,4.19141538 82.6553077,4.51495385 C82.8186923,4.82603077 83.0416154,5.10156923 83.3162308,5.33418462 C83.5783846,5.55849231 83.8885385,5.75510769 84.2388462,5.91941538 C84.5706923,6.07495385 84.9242308,6.21664615 85.2906923,6.34033846 C85.653,6.46218462 86.0286923,6.57618462 86.4154615,6.67956923 C86.7897692,6.78110769 87.1525385,6.88541538 87.5056154,6.99156923 C87.8499231,7.09587692 88.1780769,7.20803077 88.4868462,7.32849231 C88.7780769,7.44341538 89.0323846,7.57403077 89.2428462,7.71756923 C89.4366923,7.85049231 89.5899231,8.00233846 89.6979231,8.16941538 C89.793,8.31710769 89.8396154,8.48741538 89.8396154,8.69141538 C89.8396154,8.95910769 89.7791538,9.17464615 89.655,9.34910769 C89.523,9.53741538 89.3277692,9.69433846 89.0780769,9.81618462 C88.8011538,9.95095385 88.4637692,10.0515692 88.0742308,10.1143385 C87.0962308,10.2758769 85.8320769,10.2435692 84.7788462,9.99941538 C84.1811538,9.86141538 83.6056154,9.60249231 83.0679231,9.22864615 L82.4503846,8.79987692 L82.4503846,10.9935692 L82.7042308,11.0937231 C83.2913077,11.3268 83.913,11.5114154 84.549,11.6438769 C85.1965385,11.7786462 85.9239231,11.8469538 86.7108462,11.8469538 C87.0565385,11.8469538 87.4073077,11.8294154 87.765,11.7966462 C88.125,11.7624923 88.4803846,11.7029538 88.8228462,11.6184923 C89.1708462,11.5321846 89.5026923,11.4135692 89.8100769,11.2658769 C90.1313077,11.1112615 90.417,10.9128 90.6588462,10.6755692 C90.9071538,10.4332615 91.107,10.1397231 91.2533077,9.80418462 C91.3991538,9.46633846 91.473,9.07172308 91.473,8.63187692 C91.473,8.21187692 91.3871538,7.83249231 91.2177692,7.50387692" id="Fill-24"></path>
                <polygon id="Fill-26" points="27.6390462 8.92744615 26.4256615 11.6445231 27.6459692 8.92744615"></polygon>
                <polygon id="Fill-28" points="33.1161692 8.92744615 34.3350923 11.6445231 33.1217077 8.92744615"></polygon>
                <polygon id="Fill-30" points="31.1050615 0.544292308 29.6553692 0.544292308 24.6721385 11.6447538 26.4255231 11.6447538 27.6389077 8.92767692 27.6458308 8.92767692 30.3832154 2.83167692 33.1159846 8.92767692 33.1215231 8.92767692 34.3349077 11.6447538 36.0882923 11.6447538"></polygon>
            </g>
        </g>
    </g>
</svg>