<?xml version="1.0" encoding="UTF-8"?>
<svg width="13px" height="13px" viewBox="0 0 13 13" version="1.1" xmlns="http://www.w3.org/2000/svg" xmlns:xlink="http://www.w3.org/1999/xlink">
    <!-- Generator: Sketch 43 (38999) - http://www.bohemiancoding.com/sketch -->
    <title>ios-search-strong</title>
    <desc>Created with Sketch.</desc>
    <defs></defs>
    <g id="IDE" stroke="none" stroke-width="1" fill="none" fill-rule="evenodd">
        <g transform="translate(-239.000000, -96.000000)" id="Right-Side" fill-rule="nonzero" fill="#E6E6E6">
            <g transform="translate(-1.000000, 50.000000)">
                <g id="Pages" transform="translate(1.000000, 35.000000)">
                    <g id="ios-search-strong" transform="translate(239.000000, 11.000000)">
                        <path d="M9.16289748,7.64391447 C9.652892,6.87298977 9.94035545,5.95833333 9.94035545,4.97507767 C9.94035545,2.22784174 7.71578034,0 4.97181104,0 C2.22457511,0 0,2.22784174 0,4.97507767 C0,7.7223136 2.22457511,9.95015534 4.96854441,9.95015534 C5.96486659,9.95015534 6.89258955,9.65615863 7.67004751,9.15309759 L7.89544499,8.99629934 L11.4430053,12.5438596 L12.5438596,11.4234055 L8.99956597,7.87584521 L9.16289748,7.64391447 Z M7.7549799,2.19517544 C8.49650493,2.93670048 8.9048337,3.92322277 8.9048337,4.97181104 C8.9048337,6.02039931 8.49650493,7.0069216 7.7549799,7.74844664 C7.01345486,8.48997167 6.02693257,8.89830044 4.9783443,8.89830044 C3.92975603,8.89830044 2.94323374,8.48997167 2.2017087,7.74844664 C1.46018366,7.0069216 1.0518549,6.02039931 1.0518549,4.97181104 C1.0518549,3.92322277 1.46018366,2.93670048 2.2017087,2.19517544 C2.94323374,1.4536504 3.92975603,1.04532164 4.9783443,1.04532164 C6.02693257,1.04532164 7.01345486,1.4536504 7.7549799,2.19517544 Z" id="Search"></path>
                    </g>
                </g>
            </g>
        </g>
    </g>
</svg>